<svg width="100" height="100" viewBox="0 0 100 100" fill="none" xmlns="http://www.w3.org/2000/svg">
<path d="M43.1434 23.1771L43.1466 23.1752C43.9827 22.6665 44.9401 22.3916 45.9187 22.3793C46.8968 22.3671 47.8603 22.6176 48.7085 23.1047C49.6368 23.6455 50.4054 24.4222 50.9365 25.356C51.4678 26.2902 51.7424 27.3484 51.7324 28.4231V28.4277V43.8672V44.7492L52.4892 44.2962L87.7861 23.1712L87.7892 23.1693C88.6253 22.6606 89.5826 22.3858 90.5613 22.3735C91.5395 22.3612 92.503 22.6118 93.3514 23.0989C94.2795 23.6397 95.048 24.4164 95.5791 25.3501C96.1104 26.2844 96.385 27.3426 96.375 28.4172V28.4219L96.375 71.5859L96.375 71.5908C96.3855 72.6658 96.1111 73.7244 95.5798 74.659C95.0486 75.5933 94.2795 76.3704 93.3508 76.9112C92.5026 77.3982 91.5392 77.6486 90.5613 77.6363C89.5826 77.624 88.6253 77.3492 87.7892 76.8404L87.7861 76.8386L52.4893 55.7038L51.7324 55.2507V56.1328L51.7324 71.5781L51.7324 71.5836C51.7442 72.6598 51.4704 73.7199 50.939 74.6559C50.4079 75.5915 49.6382 76.3696 48.7085 76.911C47.8603 77.3981 46.8968 77.6486 45.9187 77.6363C44.9401 77.624 43.9827 77.3492 43.1466 76.8404L43.1434 76.8385L6.2592 54.7709C5.45597 54.2667 4.79369 53.567 4.33436 52.7373C3.87421 51.9061 3.63281 50.9716 3.63281 50.0215C3.63281 49.0714 3.87421 48.1369 4.33436 47.3057C4.79451 46.4745 5.45831 45.7738 6.26346 45.2694L6.49803 45.1225V45.1019L43.1434 23.1771Z" fill="#E96262" stroke="black"/>
</svg>
