<svg width="677" height="78" viewBox="0 0 677 78" fill="none" xmlns="http://www.w3.org/2000/svg">
<path d="M22.5312 8.32812H22.625C24.5625 8.20312 27.0625 8.14062 30.125 8.14062C34.875 8.14062 38.5 9.60938 41 12.5469C43.5312 15.4844 44.7969 19.2969 44.7969 23.9844C44.7969 28.7344 43.6406 32.8594 41.3281 36.3594C39.0469 39.8281 35.4688 41.5625 30.5938 41.5625C27.7188 41.5625 24.875 41.2031 22.0625 40.4844C22.0625 29.4844 22.2188 18.7656 22.5312 8.32812ZM42.875 23.9844C42.875 19.9531 41.6562 16.5625 39.2188 13.8125C36.8125 11.0625 33.625 9.84375 29.6562 10.1562C29.4062 22.1875 29.2812 31.8281 29.2812 39.0781C29.9062 39.2656 30.8594 39.4219 32.1406 39.5469C35.7969 39.1406 38.5 37.4219 40.25 34.3906C42 31.3594 42.875 27.8906 42.875 23.9844ZM13.5312 67.5781C13.4688 69.8906 9.84375 71.3906 2.65625 72.0781C2.40625 72.5781 2.40625 73.3125 2.65625 74.2812C7.96875 74.0938 13.4219 74 19.0156 74C25.6719 74 32.0625 74.0938 38.1875 74.2812C38.4375 73.7812 38.4375 73.0469 38.1875 72.0781C27.8125 71.4531 22.5938 69.9531 22.5312 67.5781C22.2188 58.7969 22.0625 50.9531 22.0625 44.0469C25.5938 44.7656 28.8594 45.125 31.8594 45.125C36.9844 54.6562 43.7344 64.2812 52.1094 74C53.7031 74 56 74.0156 59 74.0469C62.0312 74.0781 64.75 74.1094 67.1562 74.1406C69.5938 74.1719 71.9062 74.2188 74.0938 74.2812C74.3438 73.7188 74.3438 72.9844 74.0938 72.0781C68.9688 71.7031 64.6406 70.4531 61.1094 68.3281C57.6094 66.1719 53.5156 62.2031 48.8281 56.4219C45.6406 52.3906 42.7656 48.1406 40.2031 43.6719C44.8281 42.1406 48.4688 39.5938 51.125 36.0312C53.7812 32.4688 55.1094 28.4531 55.1094 23.9844C55.1094 18.3594 53.2969 13.8125 49.6719 10.3438C46.0469 6.84375 41.0312 5.09375 34.625 5.09375C13.5 5.34375 2.875 5.34375 2.75 5.09375C2.5625 5.84375 2.5625 6.57813 2.75 7.29688C9.9375 7.98438 13.5625 9.48438 13.625 11.7969C13.9375 19.1406 14.0938 27.875 14.0938 38C14.0938 47.9062 13.9062 57.7656 13.5312 67.5781ZM11.6094 67.4844C11.9844 59.6719 12.1719 49.8438 12.1719 38C12.1719 27.9375 12.0156 19.2344 11.7031 11.8906C11.6406 10.7344 8.15625 9.8125 1.25 9.125C0.71875 7.0625 0.78125 5.04688 1.4375 3.07812C4.875 3.26562 8.60938 3.35938 12.6406 3.35938C16.6719 3.35938 21.2969 3.32812 26.5156 3.26562C31.7344 3.20313 35.5625 3.17188 38 3.17188C45.5625 3.17188 51.5 5.09375 55.8125 8.9375C60.125 12.75 62.2812 17.7656 62.2812 23.9844C62.2812 28.3906 61.0156 32.4531 58.4844 36.1719C55.9531 39.8906 52.5469 42.7031 48.2656 44.6094C50.3906 48.0781 52.8594 51.6406 55.6719 55.2969C58.9844 59.7031 62.2344 63.2031 65.4219 65.7969C68.6406 68.3906 72.2031 69.875 76.1094 70.25C76.6094 72.25 76.5469 74.2656 75.9219 76.2969C71.4531 76.1719 63.2344 76.0469 51.2656 75.9219C42.4844 65.6719 35.625 56.0469 30.6875 47.0469H29.2812C29.2812 52.8594 29.4375 59.6719 29.75 67.4844C29.75 67.6719 29.8281 67.8594 29.9844 68.0469C30.1406 68.2344 30.75 68.5312 31.8125 68.9375C32.875 69.3438 34.4844 69.7031 36.6406 70.0156C38.8281 70.2969 40.0469 70.4688 40.2969 70.5312C40.8281 72.2812 40.7344 74.2031 40.0156 76.2969C28.4844 76.0469 21.4844 75.9219 19.0156 75.9219C17.3281 75.9219 11.4375 76.0469 1.34375 76.2969C0.5625 74.1406 0.5625 72.125 1.34375 70.25C8.125 69.5625 11.5469 68.6406 11.6094 67.4844ZM102.078 34.4375C104.578 34.4375 106.391 35.25 107.516 36.875C108.641 38.4688 109.203 40.4688 109.203 42.875C109.203 43.7812 109.047 44.8125 108.734 45.9688H90.4531C91.4219 42.0625 92.9844 39.1719 95.1406 37.2969C97.3281 35.3906 99.6406 34.4375 102.078 34.4375ZM89.9844 49.1562H115.531C116.031 47.5938 116.281 45.9844 116.281 44.3281C116.281 40.6719 115.234 37.6094 113.141 35.1406C111.078 32.6406 107.781 31.3906 103.25 31.3906C97.3438 31.3906 92.375 33.5312 88.3438 37.8125C84.3125 42.0938 82.2969 47.5312 82.2969 54.125C82.2969 61.1562 84.2188 66.4531 88.0625 70.0156C91.9062 73.5781 96.4219 75.3594 101.609 75.3594C105.453 75.3594 109.016 74.3281 112.297 72.2656C115.609 70.1719 118.031 67.0312 119.562 62.8438C119.125 62.3438 118.516 62 117.734 61.8125C117.609 62 117.234 62.5156 116.609 63.3594C116.016 64.1719 115.578 64.7656 115.297 65.1406C115.016 65.4844 114.5 66 113.75 66.6875C113.031 67.3438 112.328 67.8281 111.641 68.1406C110.984 68.4531 110.141 68.7656 109.109 69.0781C108.078 69.3594 106.953 69.5 105.734 69.5C100.922 69.5 97.0938 68.0781 94.25 65.2344C91.4062 62.3594 89.9219 58.5 89.7969 53.6562C89.7969 52.5625 89.8594 51.0625 89.9844 49.1562ZM116.984 59.6094C118.953 60.0469 120.547 61.0312 121.766 62.5625C119.984 67.4375 117.234 71.1094 113.516 73.5781C109.797 76.0469 105.828 77.2812 101.609 77.2812C95.8594 77.2812 90.875 75.3438 86.6562 71.4688C82.4688 67.5938 80.375 61.8125 80.375 54.125C80.375 47.1562 82.5156 41.3125 86.7969 36.5938C91.1094 31.8438 97.2031 29.4688 105.078 29.4688C116.984 29.4688 122.938 34.4219 122.938 44.3281C122.938 46.2656 122.484 48.5156 121.578 51.0781H96.4062V54.125C96.5625 57.9062 97.5938 60.9844 99.5 63.3594C101.406 65.7031 104.031 67.0781 107.375 67.4844C109.344 67.2969 110.969 66.625 112.25 65.4688C113.531 64.3125 115.109 62.3594 116.984 59.6094ZM107.281 42.875C107.281 39.4375 106.125 37.3594 103.812 36.6406C101.062 37.4844 99.0156 39.9531 97.6719 44.0469H107.188C107.188 43.9219 107.203 43.7344 107.234 43.4844C107.266 43.2344 107.281 43.0312 107.281 42.875ZM142.906 39.9219C144.375 40.1719 145.531 40.75 146.375 41.6562C147.25 42.5312 147.688 43.6562 147.688 45.0312C147.688 46.6875 147.141 48.0625 146.047 49.1562C144.953 50.2188 143.516 50.75 141.734 50.75C139.891 50.75 138.219 50.0938 136.719 48.7812C135.219 47.4688 134.469 45.6094 134.469 43.2031C134.469 39.1094 136.406 35.7969 140.281 33.2656C144.188 30.7344 149.281 29.4688 155.562 29.4688C161.531 29.4688 165.719 30.6719 168.125 33.0781C170.562 35.4531 171.781 39.4688 171.781 45.125V61.5312L174.781 61.4375C177.344 61.625 179.125 62.8438 180.125 65.0938L178.625 67.6719C177.656 69.1406 176.844 70.2812 176.188 71.0938C175.562 71.875 174.656 72.7656 173.469 73.7656C172.281 74.7656 170.891 75.4844 169.297 75.9219C167.703 76.3594 165.844 76.5781 163.719 76.5781C161.094 76.5781 159.109 75.5938 157.766 73.625C154.391 76.0625 149.984 77.2812 144.547 77.2812C142.172 77.2812 140.141 76.9062 138.453 76.1562C136.797 75.4375 135.578 74.4688 134.797 73.25C134.047 72.0312 133.516 70.8906 133.203 69.8281C132.891 68.7656 132.734 67.6875 132.734 66.5938C132.734 62 134.281 58.5625 137.375 56.2812C140.469 54 146.719 51.6562 156.125 49.25V44.1406C156.125 41.6406 155.594 39.8125 154.531 38.6562C153.5 37.5 152.156 36.9219 150.5 36.9219C146.969 36.9219 144.438 37.9219 142.906 39.9219ZM158.047 53.6562V63.4531C155.047 67.4219 151.984 69.4062 148.859 69.4062C147.047 69.4062 145.562 68.9688 144.406 68.0938C143.281 67.2188 142.719 65.9844 142.719 64.3906C142.719 61.8281 143.766 59.7188 145.859 58.0625C147.984 56.4062 152.047 54.9375 158.047 53.6562ZM156.125 62.8438V57.125C151.594 58.7812 149.328 61.2031 149.328 64.3906C149.328 65.7344 149.812 66.6719 150.781 67.2031C152.438 66.6094 154.219 65.1562 156.125 62.8438ZM141.734 46.625C140.641 46.625 139.875 45.8281 139.438 44.2344C138.812 41.6719 139.578 39.4375 141.734 37.5312C143.859 35.6562 147.062 34.7188 151.344 34.7188C153.375 34.7188 155 35.5156 156.219 37.1094C157.438 38.6719 158.047 41.0156 158.047 44.1406V50.6562C148.828 53.0312 142.625 55.2812 139.438 57.4062C136.25 59.5 134.656 62.5625 134.656 66.5938C134.656 68.7188 135.375 70.7188 136.812 72.5938C138.25 74.4375 140.828 75.3594 144.547 75.3594C146.016 75.3594 147.391 75.125 148.672 74.6562C149.984 74.1875 151.328 73.4375 152.703 72.4062C154.109 71.3438 154.969 70.6719 155.281 70.3906C155.594 70.1094 156.109 69.625 156.828 68.9375C157.578 68.2188 157.984 67.8281 158.047 67.7656C158.453 72.3594 160.344 74.6562 163.719 74.6562C164.562 74.6562 165.531 74.4375 166.625 74C167.719 73.5625 168.812 72.7031 169.906 71.4219C171.031 70.1406 171.734 69.2969 172.016 68.8906C172.328 68.4531 172.781 67.7812 173.375 66.875C173.969 65.9375 174.406 65.2969 174.688 64.9531C174.281 64.0781 173.5 63.5781 172.344 63.4531C170.625 66.0781 168.875 67.3594 167.094 67.2969C165.812 67.2344 165.172 66.3281 165.172 64.5781V45.125C165.172 40.125 164.188 36.5938 162.219 34.5312C160.281 32.4375 156.938 31.3906 152.188 31.3906C147.906 31.3906 144.188 32.5 141.031 34.7188C137.906 36.9062 136.344 39.7344 136.344 43.2031C136.344 44.9844 136.891 46.375 137.984 47.375C139.078 48.3438 140.328 48.8281 141.734 48.8281C142.172 48.2031 142.172 47.4688 141.734 46.625ZM208.344 69.2188C204.625 69.2188 201.797 67.7188 199.859 64.7188C197.953 61.6875 197 57.875 197 53.2812C197 49.5625 197.375 46.375 198.125 43.7188C198.906 41.0625 199.922 39.1094 201.172 37.8594C202.422 36.6094 203.641 35.7344 204.828 35.2344C206.016 34.7031 207.219 34.4375 208.438 34.4375C212.844 34.4375 216.141 36.2969 218.328 40.0156V46.8125C218.328 55.3438 218.297 61.1406 218.234 64.2031C214.766 67.5469 211.469 69.2188 208.344 69.2188ZM238.953 70.25C239.984 72.3125 239.922 74.2969 238.766 76.2031C230.766 75.9531 224.047 75.9531 218.609 76.2031C217.453 75.7031 216.719 75.0625 216.406 74.2812C213.375 76.2812 209.172 77.2812 203.797 77.2812C198.484 77.2812 194.172 75.2969 190.859 71.3281C187.578 67.3594 185.938 61.9531 185.938 55.1094C185.938 52.0781 186.391 49.125 187.297 46.25C188.203 43.375 189.562 40.6562 191.375 38.0938C193.188 35.5312 195.703 33.4531 198.922 31.8594C202.172 30.2656 205.875 29.4688 210.031 29.4688C212.875 29.4688 215 29.5312 216.406 29.6562C216.344 24.7188 216.312 18.7969 216.312 11.8906C214.25 11.2344 211.391 10.8125 207.734 10.625C207.047 8.78125 207.047 6.79687 207.734 4.67188C212.109 4.29688 217.656 2.89062 224.375 0.453125C227.75 0.703125 230.266 1.73437 231.922 3.54688C231.922 39.2031 232.062 60.5156 232.344 67.4844C232.406 68.8281 234.609 69.75 238.953 70.25ZM216.406 40.4844C214.844 38.2656 212.797 36.9531 210.266 36.5469C208.078 37.0156 206.203 38.5312 204.641 41.0938C203.078 43.625 202.297 47.6875 202.297 53.2812C202.297 56.9062 202.922 59.9844 204.172 62.5156C205.453 65.0469 207.375 66.5781 209.938 67.1094C212 66.6406 214.125 65.4219 216.312 63.4531C216.375 60.3594 216.406 54.8125 216.406 46.8125V40.4844ZM237.219 71.9844C235.625 71.8594 234.406 71.7344 233.562 71.6094C232.75 71.4844 231.594 71.2656 230.094 70.9531C228.625 70.6094 227.516 70.1719 226.766 69.6406C226.047 69.0781 225.688 68.3906 225.688 67.5781C225.438 60.6094 225.312 39.4219 225.312 4.01562C225 3.45312 224.453 3.03125 223.672 2.75C219.516 4.75 214.688 6.03125 209.188 6.59375C209 7.375 209 8.10938 209.188 8.79688C213.406 9.01562 216.422 9.65625 218.234 10.7188C218.234 19.5625 218.266 26.9531 218.328 32.8906C215.109 31.8906 212.344 31.3906 210.031 31.3906C206.344 31.3906 203.078 32.125 200.234 33.5938C197.422 35.0625 195.219 37 193.625 39.4062C192.031 41.7812 190.828 44.2969 190.016 46.9531C189.234 49.6094 188.844 52.3281 188.844 55.1094C188.844 61.3594 190.234 66.2969 193.016 69.9219C195.797 73.5469 199.141 75.3594 203.047 75.3594C207.984 75.3594 213 72.8281 218.094 67.7656C218.094 70.3906 218.031 72.0781 217.906 72.8281C218.25 73.5469 218.641 74.0312 219.078 74.2812C220.109 74.2188 221.125 74.1562 222.125 74.0938C223.156 74.0312 223.969 73.9844 224.562 73.9531C225.188 73.9219 225.734 73.9062 226.203 73.9062C227.922 73.9062 231.594 74 237.219 74.1875C237.656 73.5625 237.656 72.8281 237.219 71.9844ZM268.484 34.4375C270.984 34.4375 272.797 35.25 273.922 36.875C275.047 38.4688 275.609 40.4688 275.609 42.875C275.609 43.7812 275.453 44.8125 275.141 45.9688H256.859C257.828 42.0625 259.391 39.1719 261.547 37.2969C263.734 35.3906 266.047 34.4375 268.484 34.4375ZM256.391 49.1562H281.938C282.438 47.5938 282.688 45.9844 282.688 44.3281C282.688 40.6719 281.641 37.6094 279.547 35.1406C277.484 32.6406 274.188 31.3906 269.656 31.3906C263.75 31.3906 258.781 33.5312 254.75 37.8125C250.719 42.0938 248.703 47.5312 248.703 54.125C248.703 61.1562 250.625 66.4531 254.469 70.0156C258.312 73.5781 262.828 75.3594 268.016 75.3594C271.859 75.3594 275.422 74.3281 278.703 72.2656C282.016 70.1719 284.438 67.0312 285.969 62.8438C285.531 62.3438 284.922 62 284.141 61.8125C284.016 62 283.641 62.5156 283.016 63.3594C282.422 64.1719 281.984 64.7656 281.703 65.1406C281.422 65.4844 280.906 66 280.156 66.6875C279.438 67.3438 278.734 67.8281 278.047 68.1406C277.391 68.4531 276.547 68.7656 275.516 69.0781C274.484 69.3594 273.359 69.5 272.141 69.5C267.328 69.5 263.5 68.0781 260.656 65.2344C257.812 62.3594 256.328 58.5 256.203 53.6562C256.203 52.5625 256.266 51.0625 256.391 49.1562ZM283.391 59.6094C285.359 60.0469 286.953 61.0312 288.172 62.5625C286.391 67.4375 283.641 71.1094 279.922 73.5781C276.203 76.0469 272.234 77.2812 268.016 77.2812C262.266 77.2812 257.281 75.3438 253.062 71.4688C248.875 67.5938 246.781 61.8125 246.781 54.125C246.781 47.1562 248.922 41.3125 253.203 36.5938C257.516 31.8438 263.609 29.4688 271.484 29.4688C283.391 29.4688 289.344 34.4219 289.344 44.3281C289.344 46.2656 288.891 48.5156 287.984 51.0781H262.812V54.125C262.969 57.9062 264 60.9844 265.906 63.3594C267.812 65.7031 270.438 67.0781 273.781 67.4844C275.75 67.2969 277.375 66.625 278.656 65.4688C279.938 64.3125 281.516 62.3594 283.391 59.6094ZM273.688 42.875C273.688 39.4375 272.531 37.3594 270.219 36.6406C267.469 37.4844 265.422 39.9531 264.078 44.0469H273.594C273.594 43.9219 273.609 43.7344 273.641 43.4844C273.672 43.2344 273.688 43.0312 273.688 42.875ZM314.844 47.6094C315.625 44.7344 317.234 41.9375 319.672 39.2188C322.109 36.5 324.594 35.1406 327.125 35.1406C330.094 35.1406 331.578 36.0938 331.578 38C331.578 39.7188 330.766 40.8125 329.141 41.2812C328.703 41.9062 328.703 42.6406 329.141 43.4844C330.828 43.4844 332.203 42.9688 333.266 41.9375C334.359 40.9062 334.906 39.4688 334.906 37.625C334.906 35.6875 334.312 34.1719 333.125 33.0781C331.969 31.9531 330.453 31.3906 328.578 31.3906C326.141 31.3906 323.688 32.375 321.219 34.3438C318.781 36.2812 316.656 38.4531 314.844 40.8594V32.7969C314.594 32.2969 314.062 31.8906 313.25 31.5781C309.062 33.5469 304.219 34.8281 298.719 35.4219C298.531 36.1719 298.531 36.9062 298.719 37.625C302.938 37.8125 305.953 38.4531 307.766 39.5469C308.016 51.2031 307.984 60.5469 307.672 67.5781C307.609 69.8906 304.953 71.3906 299.703 72.0781C299.234 72.9219 299.234 73.6562 299.703 74.2812C307.891 73.9062 316.812 73.9062 326.469 74.2812C326.906 73.6562 326.906 72.9219 326.469 72.0781C319.062 71.3906 315.328 69.8906 315.266 67.5781C314.984 61.2344 314.844 54.5781 314.844 47.6094ZM321.875 67.4844C321.938 68.7031 324.047 69.6562 328.203 70.3438C329.234 72.4062 329.172 74.3906 328.016 76.2969C314.766 75.8594 304.75 75.7656 297.969 76.0156C296.812 74.1719 296.75 72.2812 297.781 70.3438C303.031 69.6562 305.688 68.7031 305.75 67.4844C306.125 58.5781 306.156 49.6406 305.844 40.6719C303.781 40.0469 300.938 39.6406 297.312 39.4531C296.594 37.5781 296.594 35.5938 297.312 33.5C302.531 33.1875 308.062 31.7812 313.906 29.2812C317.281 29.6562 319.812 30.6719 321.5 32.3281C324.125 30.4219 326.484 29.4688 328.578 29.4688C331.016 29.4688 333 30.1875 334.531 31.625C336.062 33.0625 336.828 35.0625 336.828 37.625C336.828 40.0625 336.109 41.9688 334.672 43.3438C333.234 44.7188 331.391 45.4062 329.141 45.4062C327.047 45.4062 325.297 44.7031 323.891 43.2969C322.609 45.0156 321.812 46.5781 321.5 47.9844C321.5 54.7656 321.625 61.2656 321.875 67.4844ZM350.609 24.0781L353 26.1875C355.562 24.5312 357.75 22.1406 359.562 19.0156C361.406 15.8594 362.328 12.8125 362.328 9.875C362.328 7.625 361.734 6.01563 360.547 5.04688C359.359 4.04688 357.875 3.54688 356.094 3.54688C354.531 3.54688 353.219 4.14063 352.156 5.32812C351.125 6.51562 350.609 7.84375 350.609 9.3125C350.609 13 352.625 14.8438 356.656 14.8438L356.844 15.1719C356.219 18.2656 354.141 21.2344 350.609 24.0781ZM356.281 28.5781H352.906L347.703 24.0781C351.172 21.1406 353.422 18.6719 354.453 16.6719C350.609 16.0469 348.688 13.5938 348.688 9.3125C348.688 7.3125 349.391 5.53125 350.797 3.96875C352.203 2.40625 353.969 1.625 356.094 1.625C357.812 1.625 359.25 1.70313 360.406 1.85938C361.562 2.01562 362.734 2.35938 363.922 2.89062C365.141 3.39063 366.047 4.21875 366.641 5.375C367.266 6.53125 367.578 8.03125 367.578 9.875C367.578 13.0625 366.453 16.4844 364.203 20.1406C361.984 23.7969 359.344 26.6094 356.281 28.5781ZM386.938 74.5625C385.438 75.0625 383.969 75.6719 382.531 76.3906C381.062 75.4844 380.094 74.5625 379.625 73.625C379.688 73.4375 379.781 72.7969 379.906 71.7031C380.031 70.6094 380.156 69.3281 380.281 67.8594C380.438 66.3906 380.562 64.875 380.656 63.3125C380.75 61.75 380.797 60.4219 380.797 59.3281C382.266 58.6406 384.531 58.2969 387.594 58.2969C387.938 58.2969 388.281 58.2969 388.625 58.2969C388.969 58.2969 389.328 58.3125 389.703 58.3438C391.953 65.6562 395.031 69.625 398.938 70.25C400.531 70 401.75 69.4219 402.594 68.5156C403.469 67.5781 403.906 66.5312 403.906 65.375C403.906 64.5312 403.672 63.75 403.203 63.0312C402.734 62.2812 402.109 61.5938 401.328 60.9688C400.547 60.3438 399.625 59.7656 398.562 59.2344C397.531 58.7031 396.438 58.1875 395.281 57.6875C394.125 57.1562 392.953 56.6562 391.766 56.1875C390.578 55.6875 389.438 55.1719 388.344 54.6406C387.188 54.1094 386.094 53.4688 385.062 52.7188C384.031 51.9375 383.125 51.0625 382.344 50.0938C381.562 49.0938 380.938 48 380.469 46.8125C380.031 45.625 379.812 44.3438 379.812 42.9688C379.812 41.5 380.062 39.9688 380.562 38.375C381.062 36.7812 381.922 35.3281 383.141 34.0156C384.359 32.7031 386 31.625 388.062 30.7812C390.125 29.9062 392.719 29.4688 395.844 29.4688C399.312 29.4688 401.875 29.6562 403.531 30.0312L405.266 29.4688H408.453C408.859 32.125 409.344 34.6094 409.906 36.9219C410.5 39.2344 411.156 41.3906 411.875 43.3906C410.531 44.7344 408.906 45.4062 407 45.4062C405.938 44.1562 404.953 43.0312 404.047 42.0312C403.141 41 402.266 40.1094 401.422 39.3594C400.609 38.6094 399.797 38 398.984 37.5312C398.203 37.0625 397.391 36.7344 396.547 36.5469C394.484 36.8906 393.453 37.8281 393.453 39.3594C393.453 40.5781 393.984 41.6406 395.047 42.5469C396.109 43.4531 397.438 44.2812 399.031 45.0312C400.625 45.7812 402.359 46.5 404.234 47.1875C406.141 47.8438 407.938 48.5469 409.625 49.2969C410.844 49.8281 411.984 50.5156 413.047 51.3594C414.141 52.2031 415.094 53.1875 415.906 54.3125C416.719 55.4062 417.359 56.6406 417.828 58.0156C418.297 59.3594 418.531 60.8125 418.531 62.375C418.531 64.6875 417.938 66.7656 416.75 68.6094C415.594 70.4531 414.047 72.0156 412.109 73.2969C410.203 74.5781 408.016 75.5625 405.547 76.25C403.078 76.9375 400.562 77.2812 398 77.2812C393.594 77.2812 389.906 76.375 386.938 74.5625ZM397.672 75.3594C401.578 75.3594 404.922 74.2031 407.703 71.8906C410.484 69.5781 411.875 66.9844 411.875 64.1094C411.875 61.2969 411.016 58.875 409.297 56.8438C407.578 54.7812 405.5 53.1875 403.062 52.0625C400.625 50.9375 398.172 49.9062 395.703 48.9688C393.234 48 391.141 46.875 389.422 45.5938C387.703 44.3125 386.844 42.8125 386.844 41.0938C386.844 38.9062 387.656 37.25 389.281 36.125C390.906 35 392.812 34.4375 395 34.4375C397.312 34.4375 399.375 35.1562 401.188 36.5938C403 38.0312 405.219 40.3281 407.844 43.4844C408.688 43.4844 409.297 43.2812 409.672 42.875C408.516 39.5625 406.797 36.8281 404.516 34.6719C402.266 32.4844 399.375 31.3906 395.844 31.3906C390.812 31.3906 387.203 32.5938 385.016 35C382.828 37.375 381.734 40.0312 381.734 42.9688C381.734 45.4688 382.562 47.6094 384.219 49.3906C385.906 51.1406 387.922 52.5 390.266 53.4688C392.641 54.4062 395 55.3438 397.344 56.2812C399.688 57.2188 401.688 58.4375 403.344 59.9375C405 61.4375 405.828 63.25 405.828 65.375C405.828 67.1562 405.062 68.75 403.531 70.1562C402 71.5625 399.859 72.2656 397.109 72.2656C393.797 72.2656 391.234 71.2188 389.422 69.125C387.641 67 386.141 64.0469 384.922 60.2656C383.828 60.2656 383.094 60.3594 382.719 60.5469C382.719 62.7969 382.609 65.375 382.391 68.2812C382.172 71.1875 381.953 72.9062 381.734 73.4375C381.953 73.75 382.25 74.0312 382.625 74.2812C383.906 73.375 384.891 72.4219 385.578 71.4219C388.328 72.9531 390.469 73.9844 392 74.5156C393.562 75.0781 395.453 75.3594 397.672 75.3594ZM489.734 75.9219C494.484 75.9219 499.344 74.8438 504.312 72.6875C509.312 70.5 513.266 67.2969 516.172 63.0781C516.172 62.6719 515.984 62.3281 515.609 62.0469C515.266 61.7656 514.875 61.625 514.438 61.625C509.75 67.3125 502.859 70.1562 493.766 70.1562C484.172 70.1562 476.922 67.2656 472.016 61.4844C467.141 55.6719 464.703 48.4531 464.703 39.8281C464.703 35.9219 465.125 32.1562 465.969 28.5312C466.844 24.875 468.188 21.3906 470 18.0781C471.844 14.7344 474.453 12.0312 477.828 9.96875C481.234 7.90625 485.203 6.875 489.734 6.875C492.828 6.875 495.688 7.35937 498.312 8.32812C500.938 9.29688 503.094 10.4375 504.781 11.75C506.469 13.0625 508.109 14.8281 509.703 17.0469C511.328 19.2344 512.547 21.1406 513.359 22.7656C514.203 24.3594 515.203 26.3906 516.359 28.8594C517.297 28.7344 517.875 28.3906 518.094 27.8281C515.781 18.5469 512.281 12.1875 507.594 8.75C502.938 5.28125 496.984 3.54688 489.734 3.54688C486.797 3.54688 483.797 3.90625 480.734 4.625C477.672 5.3125 474.516 6.5625 471.266 8.375C468.047 10.1562 465.203 12.375 462.734 15.0312C460.266 17.6562 458.234 21.125 456.641 25.4375C455.047 29.7188 454.25 34.5156 454.25 39.8281C454.25 45.1406 455.047 49.9375 456.641 54.2188C458.234 58.5 460.266 61.9531 462.734 64.5781C465.203 67.2031 468.047 69.4062 471.266 71.1875C474.516 72.9375 477.672 74.1562 480.734 74.8438C483.797 75.5625 486.797 75.9219 489.734 75.9219ZM515.188 30.9688C513.844 27.9688 512.609 25.5 511.484 23.5625C510.359 21.5938 508.859 19.4062 506.984 17C505.109 14.5625 502.875 12.6719 500.281 11.3281C497.688 9.98438 494.781 9.17188 491.562 8.89062C488 9.17188 484.891 10.3125 482.234 12.3125C479.578 14.2812 477.516 16.8125 476.047 19.9062C474.609 23 473.547 26.2188 472.859 29.5625C472.203 32.875 471.875 36.2969 471.875 39.8281C471.875 47.7031 473.859 54.3125 477.828 59.6562C481.797 65 487.719 67.8594 495.594 68.2344C503.219 67.8594 509.203 65.0156 513.547 59.7031C514.766 59.7031 515.828 60.1094 516.734 60.9219C517.641 61.7031 518.094 62.6406 518.094 63.7344C514.938 68.3281 510.672 71.8281 505.297 74.2344C499.922 76.6406 494.734 77.8438 489.734 77.8438C486.609 77.8438 483.438 77.4688 480.219 76.7188C477.031 76 473.719 74.7188 470.281 72.875C466.875 71 463.859 68.6719 461.234 65.8906C458.609 63.1094 456.469 59.4688 454.812 54.9688C453.156 50.4375 452.328 45.3906 452.328 39.8281C452.328 34.0156 453.188 28.8281 454.906 24.2656C456.625 19.6719 458.828 16 461.516 13.25C464.203 10.5 467.344 8.21875 470.938 6.40625C474.531 4.5625 478.016 3.3125 481.391 2.65625C484.797 1.96875 488.219 1.625 491.656 1.625C496.344 1.625 501.438 2.25 506.938 3.5C512.438 4.75 516.375 5.53125 518.75 5.84375C517.719 9.875 517.312 13.4219 517.531 16.4844C517.75 19.5156 518.641 23.2344 520.203 27.6406C519.297 29.4844 517.625 30.5938 515.188 30.9688ZM540.312 39.9219C541.781 40.1719 542.938 40.75 543.781 41.6562C544.656 42.5312 545.094 43.6562 545.094 45.0312C545.094 46.6875 544.547 48.0625 543.453 49.1562C542.359 50.2188 540.922 50.75 539.141 50.75C537.297 50.75 535.625 50.0938 534.125 48.7812C532.625 47.4688 531.875 45.6094 531.875 43.2031C531.875 39.1094 533.812 35.7969 537.688 33.2656C541.594 30.7344 546.688 29.4688 552.969 29.4688C558.938 29.4688 563.125 30.6719 565.531 33.0781C567.969 35.4531 569.188 39.4688 569.188 45.125V61.5312L572.188 61.4375C574.75 61.625 576.531 62.8438 577.531 65.0938L576.031 67.6719C575.062 69.1406 574.25 70.2812 573.594 71.0938C572.969 71.875 572.062 72.7656 570.875 73.7656C569.688 74.7656 568.297 75.4844 566.703 75.9219C565.109 76.3594 563.25 76.5781 561.125 76.5781C558.5 76.5781 556.516 75.5938 555.172 73.625C551.797 76.0625 547.391 77.2812 541.953 77.2812C539.578 77.2812 537.547 76.9062 535.859 76.1562C534.203 75.4375 532.984 74.4688 532.203 73.25C531.453 72.0312 530.922 70.8906 530.609 69.8281C530.297 68.7656 530.141 67.6875 530.141 66.5938C530.141 62 531.688 58.5625 534.781 56.2812C537.875 54 544.125 51.6562 553.531 49.25V44.1406C553.531 41.6406 553 39.8125 551.938 38.6562C550.906 37.5 549.562 36.9219 547.906 36.9219C544.375 36.9219 541.844 37.9219 540.312 39.9219ZM555.453 53.6562V63.4531C552.453 67.4219 549.391 69.4062 546.266 69.4062C544.453 69.4062 542.969 68.9688 541.812 68.0938C540.688 67.2188 540.125 65.9844 540.125 64.3906C540.125 61.8281 541.172 59.7188 543.266 58.0625C545.391 56.4062 549.453 54.9375 555.453 53.6562ZM553.531 62.8438V57.125C549 58.7812 546.734 61.2031 546.734 64.3906C546.734 65.7344 547.219 66.6719 548.188 67.2031C549.844 66.6094 551.625 65.1562 553.531 62.8438ZM539.141 46.625C538.047 46.625 537.281 45.8281 536.844 44.2344C536.219 41.6719 536.984 39.4375 539.141 37.5312C541.266 35.6562 544.469 34.7188 548.75 34.7188C550.781 34.7188 552.406 35.5156 553.625 37.1094C554.844 38.6719 555.453 41.0156 555.453 44.1406V50.6562C546.234 53.0312 540.031 55.2812 536.844 57.4062C533.656 59.5 532.062 62.5625 532.062 66.5938C532.062 68.7188 532.781 70.7188 534.219 72.5938C535.656 74.4375 538.234 75.3594 541.953 75.3594C543.422 75.3594 544.797 75.125 546.078 74.6562C547.391 74.1875 548.734 73.4375 550.109 72.4062C551.516 71.3438 552.375 70.6719 552.688 70.3906C553 70.1094 553.516 69.625 554.234 68.9375C554.984 68.2188 555.391 67.8281 555.453 67.7656C555.859 72.3594 557.75 74.6562 561.125 74.6562C561.969 74.6562 562.938 74.4375 564.031 74C565.125 73.5625 566.219 72.7031 567.312 71.4219C568.438 70.1406 569.141 69.2969 569.422 68.8906C569.734 68.4531 570.188 67.7812 570.781 66.875C571.375 65.9375 571.812 65.2969 572.094 64.9531C571.688 64.0781 570.906 63.5781 569.75 63.4531C568.031 66.0781 566.281 67.3594 564.5 67.2969C563.219 67.2344 562.578 66.3281 562.578 64.5781V45.125C562.578 40.125 561.594 36.5938 559.625 34.5312C557.688 32.4375 554.344 31.3906 549.594 31.3906C545.312 31.3906 541.594 32.5 538.438 34.7188C535.312 36.9062 533.75 39.7344 533.75 43.2031C533.75 44.9844 534.297 46.375 535.391 47.375C536.484 48.3438 537.734 48.8281 539.141 48.8281C539.578 48.2031 539.578 47.4688 539.141 46.625ZM576.781 30.6875C586.5 31.0312 596.219 31.0312 605.938 30.6875C606.656 32.8125 606.656 34.7031 605.938 36.3594C603.906 36.6719 602.547 37.0469 601.859 37.4844C601.203 37.8906 601.062 38.6406 601.438 39.7344L606.547 53.4688L612.312 39.7344C612.812 38.5781 612.766 37.8125 612.172 37.4375C611.609 37.0312 610.312 36.6719 608.281 36.3594C607.562 34.4531 607.562 32.5625 608.281 30.6875C614.875 30.875 621.422 30.875 627.922 30.6875C628.641 32.5625 628.641 34.4531 627.922 36.3594C625.578 36.5469 623.906 36.9062 622.906 37.4375C621.906 37.9375 621.156 38.7656 620.656 39.9219L604.156 77.2812H599.234L584.562 39.8281C584.094 38.7344 583.266 37.9531 582.078 37.4844C580.922 36.9844 579.156 36.6094 576.781 36.3594C576.062 34.4531 576.062 32.5625 576.781 30.6875ZM604.531 32.4219C595.75 32.7344 586.984 32.7344 578.234 32.4219C577.891 33.2656 577.891 34 578.234 34.625C580.578 34.9062 582.359 35.3281 583.578 35.8906C584.797 36.4531 585.734 37.5469 586.391 39.1719L600.594 75.3594H602.891L618.922 39.1719C620.266 36.3281 622.797 34.8125 626.516 34.625C626.828 34 626.828 33.2656 626.516 32.4219C620.953 32.6094 615.344 32.6094 609.688 32.4219C609.375 33.2656 609.375 34 609.688 34.625C610.906 34.6875 611.875 34.8438 612.594 35.0938C613.344 35.3125 614.016 35.7656 614.609 36.4531C615.234 37.1094 615.234 38.0156 614.609 39.1719L603.734 64.8594L594.453 39.1719C594.109 38.3281 594.109 37.625 594.453 37.0625C594.828 36.4688 595.562 36.0156 596.656 35.7031C597.75 35.3906 598.859 35.1719 599.984 35.0469C601.141 34.8906 602.656 34.75 604.531 34.625C604.844 34 604.844 33.2656 604.531 32.4219ZM655.859 34.4375C658.359 34.4375 660.172 35.25 661.297 36.875C662.422 38.4688 662.984 40.4688 662.984 42.875C662.984 43.7812 662.828 44.8125 662.516 45.9688H644.234C645.203 42.0625 646.766 39.1719 648.922 37.2969C651.109 35.3906 653.422 34.4375 655.859 34.4375ZM643.766 49.1562H669.312C669.812 47.5938 670.062 45.9844 670.062 44.3281C670.062 40.6719 669.016 37.6094 666.922 35.1406C664.859 32.6406 661.562 31.3906 657.031 31.3906C651.125 31.3906 646.156 33.5312 642.125 37.8125C638.094 42.0938 636.078 47.5312 636.078 54.125C636.078 61.1562 638 66.4531 641.844 70.0156C645.688 73.5781 650.203 75.3594 655.391 75.3594C659.234 75.3594 662.797 74.3281 666.078 72.2656C669.391 70.1719 671.812 67.0312 673.344 62.8438C672.906 62.3438 672.297 62 671.516 61.8125C671.391 62 671.016 62.5156 670.391 63.3594C669.797 64.1719 669.359 64.7656 669.078 65.1406C668.797 65.4844 668.281 66 667.531 66.6875C666.812 67.3438 666.109 67.8281 665.422 68.1406C664.766 68.4531 663.922 68.7656 662.891 69.0781C661.859 69.3594 660.734 69.5 659.516 69.5C654.703 69.5 650.875 68.0781 648.031 65.2344C645.188 62.3594 643.703 58.5 643.578 53.6562C643.578 52.5625 643.641 51.0625 643.766 49.1562ZM670.766 59.6094C672.734 60.0469 674.328 61.0312 675.547 62.5625C673.766 67.4375 671.016 71.1094 667.297 73.5781C663.578 76.0469 659.609 77.2812 655.391 77.2812C649.641 77.2812 644.656 75.3438 640.438 71.4688C636.25 67.5938 634.156 61.8125 634.156 54.125C634.156 47.1562 636.297 41.3125 640.578 36.5938C644.891 31.8438 650.984 29.4688 658.859 29.4688C670.766 29.4688 676.719 34.4219 676.719 44.3281C676.719 46.2656 676.266 48.5156 675.359 51.0781H650.188V54.125C650.344 57.9062 651.375 60.9844 653.281 63.3594C655.188 65.7031 657.812 67.0781 661.156 67.4844C663.125 67.2969 664.75 66.625 666.031 65.4688C667.312 64.3125 668.891 62.3594 670.766 59.6094ZM661.062 42.875C661.062 39.4375 659.906 37.3594 657.594 36.6406C654.844 37.4844 652.797 39.9531 651.453 44.0469H660.969C660.969 43.9219 660.984 43.7344 661.016 43.4844C661.047 43.2344 661.062 43.0312 661.062 42.875Z" fill="#09120B"/>
</svg>
